<svg xmlns="http://www.w3.org/2000/svg" width="560" height="640" viewBox="0 0 560 640" role="img" aria-label="Model">
  <defs>
    <linearGradient id="bg" x1="0" y1="0" x2="1" y2="1">
      <stop offset="0" stop-color="#f2f2f2"/>
      <stop offset="1" stop-color="#ffffff"/>
    </linearGradient>
    <linearGradient id="coat" x1="0" y1="0" x2="0" y2="1">
      <stop offset="0" stop-color="#2b2b2b"/>
      <stop offset="1" stop-color="#0b0b0b"/>
    </linearGradient>
    <filter id="shadow" x="-20%" y="-20%" width="140%" height="140%">
      <feDropShadow dx="0" dy="18" stdDeviation="16" flood-color="#000" flood-opacity=".14"/>
    </filter>
  </defs>

  <rect x="0" y="0" width="560" height="640" rx="28" fill="url(#bg)"/>

  <g filter="url(#shadow)">
    <ellipse cx="320" cy="586" rx="170" ry="26" fill="#000" opacity=".12"/>
  </g>

  <g transform="translate(210 88)">
    <circle cx="88" cy="64" r="38" fill="#1a1a1a"/>
    <path d="M88 102c-46 0-74 34-74 78v36c0 14 10 24 24 24h100c14 0 24-10 24-24v-36c0-44-28-78-74-78Z" fill="url(#coat)"/>
    <path d="M38 186c-10 16-16 34-16 54v80c0 16 14 28 30 26l36-4V186H38Z" fill="#121212"/>
    <path d="M138 186c10 16 16 34 16 54v80c0 16-14 28-30 26l-36-4V186h50Z" fill="#121212"/>
    <path d="M66 330l-10 118c-2 22 14 42 36 45l22 3 12-166H66Z" fill="#0f0f0f"/>
    <path d="M110 330l10 118c2 22-14 42-36 45l-22 3-12-166h60Z" fill="#151515"/>
    <path d="M54 520h64l-10 26H64l-10-26Z" fill="#0b0b0b"/>
    <path d="M62 546h48l-4 16H66l-4-16Z" fill="#1b1b1b"/>
  </g>

  <g opacity=".14" fill="#000">
    <path d="M88 256l10 20 22 6-18 14 2 22-16-12-16 12 2-22-18-14 22-6 10-20Z"/>
    <path d="M142 214l6 12 14 4-11 9 1 14-10-7-10 7 1-14-11-9 14-4 6-12Z"/>
    <path d="M442 170l8 16 18 5-15 12 2 18-13-9-13 9 2-18-15-12 18-5 8-16Z"/>
  </g>
</svg>