<svg xmlns="http://www.w3.org/2000/svg" width="360" height="360" viewBox="0 0 360 360" role="img" aria-label="Jeans product image">
  <defs>
    <linearGradient id="g" x1="0" y1="0" x2="1" y2="1">
      <stop offset="0" stop-color="#f2f2f2"/>
      <stop offset="1" stop-color="#ffffff"/>
    </linearGradient>
    <filter id="s" x="-20%" y="-20%" width="140%" height="140%">
      <feDropShadow dx="0" dy="14" stdDeviation="14" flood-color="#000" flood-opacity=".12"/>
    </filter>
  </defs>
  <rect width="360" height="360" rx="22" fill="url(#g)"/>
  <g filter="url(#s)" transform="translate(98 48)">
    <path d="M18 18h128l-14 92-18 150c-1 10-9 18-19 18H78c-10 0-18-8-19-18L40 110 18 18Z" fill="#0e0e0e"/>
    <path d="M82 110h0l-18 148c-1 10-9 18-19 18H34c-10 0-18-8-19-18L6 126 18 18h44l20 92Z" fill="#121212"/>
    <path d="M82 110l20-92h44l12 108-9 132c-1 10-9 18-19 18h-11c-10 0-18-8-19-18L82 110Z" fill="#101010"/>
    <path d="M40 56h92" stroke="#fff" stroke-opacity=".14" stroke-width="4" stroke-linecap="round"/>
    <path d="M52 80h68" stroke="#fff" stroke-opacity=".10" stroke-width="4" stroke-linecap="round"/>
  </g>
  <text x="18" y="332" font-family="Inter, Arial, sans-serif" font-size="12" fill="#000" opacity=".42">Placeholder image (swap via CMS)</text>
</svg>