<svg xmlns="http://www.w3.org/2000/svg" width="360" height="360" viewBox="0 0 360 360" role="img" aria-label="T-shirt product image">
  <defs>
    <linearGradient id="g" x1="0" y1="0" x2="1" y2="1">
      <stop offset="0" stop-color="#f2f2f2"/>
      <stop offset="1" stop-color="#ffffff"/>
    </linearGradient>
    <filter id="s" x="-20%" y="-20%" width="140%" height="140%">
      <feDropShadow dx="0" dy="14" stdDeviation="14" flood-color="#000" flood-opacity=".12"/>
    </filter>
  </defs>
  <rect width="360" height="360" rx="22" fill="url(#g)"/>
  <g filter="url(#s)" transform="translate(72 64)">
    <path d="M64 34c18-16 38-24 62-24s44 8 62 24l34 20-22 46-30-16v138c0 14-12 26-26 26H78c-14 0-26-12-26-26V84L22 100 0 54l34-20Z" fill="#111"/>
    <path d="M88 14c10 10 22 16 38 16s28-6 38-16c-10-2-22-4-38-4s-28 2-38 4Z" fill="#1c1c1c"/>
    <path d="M66 86h120" stroke="#fff" stroke-opacity=".18" stroke-width="4" stroke-linecap="round"/>
    <path d="M66 110h120" stroke="#fff" stroke-opacity=".12" stroke-width="4" stroke-linecap="round"/>
  </g>
  <text x="18" y="332" font-family="Inter, Arial, sans-serif" font-size="12" fill="#000" opacity=".42">Placeholder image (swap via CMS)</text>
</svg>